<svg width="119" height="114" viewBox="0 0 119 114" fill="none" xmlns="http://www.w3.org/2000/svg">
<path d="M14.1474 72.5003C-23.028 48.7095 22.7124 27.7829 41.3001 12.834C86.5028 -27.6057 115.059 37.0128 99.0768 75.6601C84.152 114.464 37.5278 91.9025 14.1474 72.4911" fill="#B0DEE6"/>
<path d="M62.5028 17.9432C33.1087 18.3221 33.1816 64.5639 25.2271 85.3335C8.45266 131.15 103.851 108.2 112.553 86.4422C124.289 58.6139 96.3069 21.8606 62.5028 17.9432ZM48.3433 113.319C4.68956 118.687 27.0768 73.184 32.152 49.6981C41.9379 -10.5687 104.398 21.2324 116.134 61.4226C128.79 101.022 78.5848 113.393 48.3433 113.319Z" fill="#368DB1"/>
</svg>
